<?xml version="1.0" encoding="UTF-8"?>
<!DOCTYPE svg PUBLIC "-//W3C//DTD SVG 1.1//EN" "http://www.w3.org/Graphics/SVG/1.1/DTD/svg11.dtd">
<!-- Creator: CorelDRAW 2020 (64-Bit) -->
<svg xmlns="http://www.w3.org/2000/svg" xml:space="preserve" width="1.97425in" height="2.26457in" version="1.1" style="shape-rendering:geometricPrecision; text-rendering:geometricPrecision; image-rendering:optimizeQuality; fill-rule:evenodd; clip-rule:evenodd"
viewBox="0 0 1974.25 2264.57"
 xmlns:xlink="http://www.w3.org/1999/xlink"
 xmlns:xodm="http://www.corel.com/coreldraw/odm/2003">
 <defs>
  <style>
  
    .fil0{fill:#213360}
  
  </style>
 </defs>
 <g id="Слой_x0020_1">
  <metadata id="CorelCorpID_0Corel-Layer"/>
  <path class="fil0" d="M891.59 474.35c28.67,4.35 23.93,14.91 62.82,13.98 44.99,-1.07 19.61,-9.18 51.86,-20.21 15.06,20.33 18.2,11.93 27.15,37.39 -16.96,10.72 -17.2,2.47 -40.91,2.4l36.89 22.64c5.8,60.36 -15.19,68.7 -41.53,96.39 -25.58,26.89 -33.63,42.34 -76.14,54.33 -5.11,-34.56 -16.57,-36.94 -4.53,-66.8 3.28,-8.13 10.38,-14.93 6.02,-31.23 -6.98,-26.13 0.62,-5.71 -20.8,-21.39 0.12,-44.09 -7.08,-45.33 -0.85,-87.49zm-191.89 725.52c0.33,-0.4 7.55,-8.98 13.52,-15.11l13.65 32.77 54.66 218.16c59.92,174.22 24.09,60.54 28.37,221.92 2.08,78.45 45.95,127.83 50.25,212.54l-2.41 186.21c-5.09,41.73 2.15,9.89 7.73,48.76 12.84,-0.64 16.92,-2.1 29.78,0.72 28.56,6.27 10.73,3.67 18.28,8.54 -38.64,17.95 -93.75,6.84 -131.97,-2.67 -39.85,-9.91 -76.9,-18.35 -115.24,-28.06l-6.26 17.53c-14.39,-7.86 -2.62,-3.52 -9.57,-14.39 -12.22,-19.13 6.04,-5.31 -9.21,-10.27 -41.43,23.18 5.15,41.26 33.49,34.3 21.35,-5.25 45.41,-3.65 68.55,11.38 -44.15,1.26 -102.66,2.6 -146.02,-1.3 -44.65,-4.02 -88.63,-19.82 -134.11,-12.92 7.78,-16.2 15.63,-18.44 9.06,-30.83 -35.63,-3.4 -5.83,-2.78 -20.17,4.05 -49.16,23.42 -9.98,39.37 21.22,37.2 30.68,-2.12 515.83,79.2 555.45,90.47 45.12,12.82 12.78,15.57 81.8,10.44 -13.85,-17.17 -11.81,-3.96 -11.32,-32.22 -34.69,21.29 -21.11,-3.52 -64.72,-15.46 -24.75,-6.78 -54.84,-9.2 -74.98,-19.27 22.32,-0.65 168.31,1.42 188.52,19.33l-43.26 3.96 28.27 14.31c0.53,-1.23 2.81,0.54 5.08,1.8l-11.01 28.65c36.83,5.74 79.2,21.58 115.56,31.58 35.73,9.83 85.02,17.11 118.75,11.93l-14.21 -4.4c-24.69,-6.27 -36.19,-17.64 -69.07,-15.34 -50.96,3.56 -22.87,-10.52 -38.24,-56.54 181.89,14.56 364.43,41.23 546.96,46.17 48.62,1.31 100.85,5.57 149.38,-1.03 7.71,-1.05 13.02,-2.2 20.72,-5.63 13.13,-5.85 5.8,-2.11 14.41,-9.59 -4.95,-0.6 -128.39,12.81 -199.02,5.9 -67.83,-6.65 -127.49,-15.51 -194.39,-25.63 -129.62,-19.61 -260.47,-34 -392.05,-47.59 -4.78,-13.27 9.66,10.54 -0.9,-15.77 -43.47,1.41 -24,-3.22 -51.7,-12.36 -25.19,-8.3 -29.04,-2.83 -55.84,-4.04l42.97 -18.21c-40.98,-19.52 -38.15,30.97 -71.88,2.03 1.13,-0.93 2.73,-2.22 3.43,-2.76 14.61,-11.21 45.8,-32.18 69.22,-12.57 4.09,-48.63 -66.19,-35.64 -100.04,-24.17 -22.87,7.75 -51.47,-7.61 -90.8,-4.03 12.14,-10.85 -1.97,0.13 14.77,-9.69l18.53 -10.02c-41.87,-10.98 -45.46,-14.86 -63.26,-45.67 12.57,-6.24 29.26,-6.63 47.88,-16.2 -12.09,-10.68 -0.57,-1.99 -18.65,-8.33 -9.76,-3.43 -5.45,0.31 -18.4,-5.77 -7.77,-3.65 -19.83,-14.52 -23.51,-21.21 25.34,-18.82 -1.24,-2.48 20.78,-1.58 14.62,0.59 1.26,7.8 20.95,-6.1 9.08,-6.41 10.71,-9.93 20.64,-16.5 14.68,-9.7 9.47,11.32 13.81,-7.93 0.26,-1.14 1.79,-0.89 2.54,-1.55 -10.11,-19.24 -2.52,-13.09 -6.87,-29.93 -0.4,-1.53 -1.17,-3.85 -1.52,-5.09 -0.34,-1.22 -1.55,-2.3 -1.81,-4.93 -0.26,-2.62 -0.97,-3.42 -1.98,-4.85 -33.37,5.3 -7.59,-1.8 -15.88,17.19 -12.32,28.2 -7.06,10.56 -3.75,39.8l-34.6 -14.4c-1.13,-0.45 -4.02,0.07 -4.85,-2.01 -0.83,-2.09 -3.38,-1.11 -4.87,-2.05 -0.11,-64.55 -16.57,-51.38 -17.16,-87.52 -1.11,-67.91 2,-34.27 -21.86,-85.06 -21.28,-45.27 -18.38,-98.45 -10.67,-145.41 0.11,-0.69 0.52,-2.39 0.62,-3.06 7.1,-47.74 -40.43,-308.17 -67.41,-366.04l-7.65 -32.54c14.04,-9.73 28.22,-20.96 39.33,-29.99 23.2,-18.85 18.59,-19.03 54.71,-13.18 36.7,44.86 40.8,150.24 33.69,219.99 -6.82,66.83 -12.91,49.04 2.2,75.43 6.06,10.58 14.32,-4.57 2.91,23.41 -14.6,35.76 -38.33,30.04 -51.17,64.09 3.59,2.68 17.48,11.65 20,14.43 21.24,23.35 -18.48,-15.61 4.44,12.78 12.04,14.91 22.22,0.24 38.74,27.13 -17.72,9.12 -29.23,5.86 -52.72,7.24 41.65,21.39 53.75,-13.3 55.8,40.6l2 9.11c5.09,34.38 11.69,69.21 12.85,105.61 0.96,30.36 -8.54,78.31 0.31,100.28l22.17 -2.88c10.93,-35.13 7.73,-125.44 6.63,-166.06 -1.02,-37.91 2.49,-116.85 -37.64,-127.73 39.49,-10.67 34.48,-20.51 33.83,-66.33 -0.83,-0.71 -2.45,-1.35 -2.87,-1.6 -0.41,-0.24 -2.3,-1.34 -2.8,-1.64l-13.38 -9.29c5.03,-28.79 19.06,-36.01 23.67,-69.8 16.08,-117.72 -14.16,-293.16 -45.44,-408.2 -13.17,-48.44 -38.72,-95.88 -46.12,-135.5 44.98,-25.75 26.26,-1.56 67.2,-44.79 31.91,-33.69 138.57,-134.64 146.36,-181.58l-26.46 -15.9c-50.7,50.52 -20.83,52.79 -14.15,58.65 -32.35,-4.65 -21.28,-10.83 -40.95,9.3l-88.56 92.94c-21.1,2.72 18.72,-2.04 -10.22,-7.54 -18.13,-3.45 -22.5,24.64 -27.79,45.68 -12.01,-21.89 -0.74,-16.26 -15.46,-31.96 -12.53,-13.37 -1.4,-2.44 -9.25,-7.26 -0.48,-0.3 -2.2,-1.21 -2.65,-1.46l-8.63 -3.72c0.65,-8.32 2,-16.47 0.81,-24.32 -3.27,-21.6 0.41,4.78 -6.72,-21.44 -4.28,-15.74 -5.69,-28.65 -3.75,-42.46l53.4 4.17c-13.3,15.57 -14.15,12.91 -32.63,22.17 13.32,5.73 8.23,1.44 30.65,0.23 -39.39,38.76 -1.37,5.96 -19.83,49.91 44.5,-19.91 55.91,-33.19 85.98,-60.46 69.41,-62.95 43.64,-65.72 94.04,-93.3 26.63,-14.57 4.39,-14.5 36.33,-6.83l-2.62 12.49c1.28,25.09 4.77,13.53 13.29,18.41 33.93,-34.58 -0.51,-49.57 52.7,-74.83l167.61 -73.67c37.9,-7.13 50.24,-2.94 49.31,-60.52 17.91,11.7 -1.54,7.51 31.1,-11.44 44.15,-25.63 74.08,-19.52 90.18,-66.69l3.5 -9.23c81.2,2.1 163.13,4.15 244.22,4.95 41.11,0.4 64.87,8.71 102.56,23.17 27.47,10.55 55.14,29.32 82.37,31.34 -23.29,-17.6 -45.47,-20.4 -66.12,-34.89l3.26 -93.7c-26.99,-0.1 -65.7,-7.9 -84.09,6.11 5.11,29.06 -1.59,5.43 8.8,15.92l11.74 7.2c0.62,-1.23 3.09,1.05 4.45,1.92 -0.94,26.51 -4.52,15.02 5.91,30.18 -157.47,9.14 -323.65,-4.54 -482.14,-5.57 -25.57,-0.17 -54.45,1.89 -76.09,-5.01 -32.35,-10.3 -37.97,-8.5 -74.15,-7.63 -3.52,12.8 -4.44,-5.5 3.52,7.68 11.46,18.98 10.11,-9.79 2.73,3.86l-143.97 -4.13c-44.03,-7.19 22.52,-14.03 -46.05,-13.3 19.72,-40.72 21.26,-24.9 68.71,-9.89 -10.55,10.05 -9.29,9.48 -20.51,13.13 18.57,0.67 36.2,-0.72 54.67,-1.21 21.84,-0.58 36.36,2.98 42.65,-16.07 -29.8,-13.11 -47.11,3.76 -84.92,-19.23 -3.36,-25.02 -11.78,-9.54 13.05,-20.26l-24.64 -18.68c45.8,-82.31 180.78,-21.35 254.17,-8.51 -17.98,-13.41 -37.43,-19.11 -64.07,-24.57 -23.33,-4.79 -48.44,-4.1 -62.68,-22.26 57.99,0.45 91.35,13.08 134.45,17.01 -30.1,4.95 -133.16,-54.07 -257.71,11.12 -12.49,6.54 -4.94,1.55 -14.35,10.79 -0.94,0.93 -2.08,2.42 -2.98,3.38 -0.9,0.96 -2.03,2.47 -2.9,3.44l-5.78 6.7c-2.2,2.5 -8.89,9.62 -10.97,12.19 4.84,2.83 37.14,-3.46 13.98,14.01l-40.52 20.02c-2.49,-16.96 -5.07,-17.56 -0.47,-27.13 11.03,-22.96 3.26,23.44 11.29,-12.66 -21.8,-23.2 -9.78,-2.32 -26.52,-12.28l10.95 -46.27 -25.8 -7.96 40.25 -8.68 -10.35 -33.1c-14.96,-4.3 -7.75,2.37 -18.73,-7.05 7.69,-12.09 -6.28,-19.69 -11.01,-42.12 -5.14,-24.36 -0.23,-25.19 -10.21,-49.13l-36.28 -3.87c-14.32,-14.8 -44.71,-13.02 -58.35,-10.83l-17.84 3.04c-13.74,0.67 1.43,-4.43 -14.26,1.61 -15.28,5.87 -80.2,36.05 -70.77,55.42 0.13,0.28 1.23,1.81 1.37,2.18l1.85 5.43c0.06,0.66 0.25,2.56 0.2,3.3 -0.72,13 1.88,-1.07 -5.21,15.78 -9.26,22 -6.32,13.65 -12.17,38.83 -8.48,36.48 -11.16,42.26 -45.35,54.85 0.17,1.28 1.5,2.86 1.74,3.47 17.73,45.13 -21.91,-1.39 -41.56,38.46 -15.19,30.8 13.59,43.85 23.13,71.24 -12.95,-7.67 -18.57,-16.59 -40.65,-17.85l-2 -28.15c-31.06,25.71 -59.41,8.26 -99.87,30.02 14.67,11.73 35.24,16.43 52.17,28.75 24.75,17.99 16,23.12 28.85,47.41l0.2 -51.74c-8.17,-3.8 -9.66,-3.69 -20,-10.5l-16.18 -12.92c-0.76,-2.52 -2.82,-2.52 -4.32,-2.98l54.42 7.75c-10.65,19.44 -2.67,50.3 -2,75.79l16.11 3.69c-47.28,9.48 36.2,80.32 50.91,92.45 -11.24,15.03 -6.27,9.06 -10.92,25.42l-10.5 -28.1c-10.59,-16.56 -37.25,-22.18 -38.36,-37.61l-0.39 -5.09c-6.35,-18.67 -39.66,-22.66 -37.07,-42.4 3.53,-26.92 -24.9,-43.49 -46.12,-53.04 21.37,41.34 13.37,52.66 25.83,88.91 13.25,38.58 29.63,28.43 47.07,59.6l29.48 -9.14 -4.15 42.87c-20.77,15.68 -10.26,-15.1 -20.83,17.65 -0.23,0.72 -1.15,5.1 -1.32,4.19 -0.18,-0.96 -0.5,3.18 -1.45,4.38 -25.76,-46.26 -25.08,-4.22 -23.22,-70.02 -10.37,9.49 -3.94,5.87 -10.97,13.67 -10.46,11.62 1.04,5.83 -12.74,11.72 -23.93,-52.02 -70.32,-58.63 -74.85,-106.05 11.74,-9.34 19.25,-11.98 30.25,-19.5 -19.83,-13.8 -18.48,-19.67 -25.54,-49.87 -44.95,-1.81 -68.1,-9.93 -75.62,74.86 -5.56,62.74 -5.44,87.59 0.3,150.37 53.22,-3.54 72.41,1.32 117.92,5.54l-19.55 -27.09c19.08,8.35 64.91,39.3 76.54,54.29l-144.66 -22.25c1.33,1.14 3.2,2.48 4.16,3.22l50.98 39.18c19.37,12.21 40.42,16.18 57.85,35.77l-59.26 -16.72c38.26,13.18 85.6,43.58 123.39,59.26 31.56,13.1 96.02,45.75 112.02,67.3 -79.26,-16.54 -136.2,-43.51 -202.58,-60.28 41.77,34.3 105.74,59.3 148.79,92.83 -63.12,-4.35 -104.18,-39.2 -160.08,-48.7 29.86,22.2 69.35,44.47 107.37,62.59 35.15,16.76 78.71,32.53 107.8,57.95 -56.95,-3.27 -97.98,-41.79 -143.68,-51.11 37.13,24.27 56.78,35.96 102.44,58.2 -35.11,13.42 -75.52,17.42 -77.5,18.08l-10.5 4.5c71.79,-1.39 127.57,-15.9 201.52,-12.02l-90.31 14.1 49.4 5.13c-20.65,10.64 -45.77,14.39 -71.43,27.63 -27.65,14.27 -40.26,28.82 -63.24,37.89 7.97,11.54 2.12,2.28 10.7,11.01l6.93 6.69c8.55,9.22 4.5,0.94 11.58,15.13 -8.65,21.66 1.02,8.45 -21.2,25.01 -8.53,6.35 -16.31,11.11 -23.81,17.48 26.76,-9.55 31.37,-15.48 65.85,-19.58 -11.17,18.84 -31.82,32.07 -48.89,45.94 1.34,0.72 3.46,1.29 4.31,1.51 0.81,0.2 3.2,1.09 4.16,1.29l19.77 -0.96c-20.65,9.5 -27.67,16.64 -51.89,25.04 17.45,6.07 19.19,-2.03 30.47,5.89 -73.45,70.64 -71.41,276.24 -179.82,329.09 56.09,-131.73 73.3,-196.88 116.6,-331.87 29.36,-91.53 -12.88,-91.97 18.05,-113.28 -2.58,-1.26 -8.82,-6.02 -11.29,-8.08 -25.56,-21.33 15.95,8.12 -7.04,-6.46 -8.19,-5.2 -11.7,-3.59 -23.14,-6.87l54.47 -25.3 -46.76 1.58c19.42,-9.27 47.35,-17.2 64.43,-30.75l-97.7 1.43c-31.75,53.13 -22.99,63.19 -6.49,121.72 17.91,63.5 -39.46,140.11 -39.46,165.43 -0,31.09 7.11,-32.37 4.33,12.8 -1.56,25.45 -18.97,60.98 -25.54,85.52 -15.47,57.78 -13.77,28.25 -17.12,28.96 -11.7,92.31 -38.38,191.01 -90.4,263.72 -15.5,21.66 -30.88,49.15 -37.99,77.56 17.91,-19.73 28.1,-37.8 49.41,-57.58l-14.72 37.44c7.57,-6.23 4.68,-3.37 11.64,-10.85l23.06 -28.18c33.66,-34.04 23.74,-45.81 46.66,-79.21 28.06,-40.9 4.19,-2.13 9.2,-28.18l58.96 5.74c-7.53,7.92 -0.35,0.59 -11.28,10.35 -24.67,22.02 -31.51,44.14 -54.15,65.79 -53.63,51.26 -71.87,218.85 -112.69,281.33 -19.67,-2.43 -23.67,-5.19 -35.79,-18.02 -0.99,1.37 -1.56,3.65 -2.04,4.65l-25.63 26.32c8.2,66.56 -8.91,105.93 -42.72,162.77 0.99,0.66 3.01,0.59 3.49,0.73 0.44,0.13 2.75,0.57 3.24,0.76 0.43,0.17 2.4,0.61 2.8,0.84l0.91 20.7 44.52 13.48c-49.41,3.97 -83.33,-17.43 -87.79,34.05 16.74,-8.56 33.2,-16.73 59.1,-9.45 22.02,6.19 19.38,12.08 11.04,24.4 -15.58,-11.33 -32.6,-6.21 -45.87,-10.57 -10.03,-3.3 -8.03,-5.82 -17.4,6.44 4.94,12.24 9.05,18.35 21,21.81 20.04,5.81 19.53,-3.36 30.85,4.35 -22.43,14.5 -26.27,3.86 -49.87,11.02l33.25 9.59 -30.31 10.46c-16.25,-24.09 -47.32,5.02 -66.32,18.32l-75.65 50.2c-19.43,-15.34 -20.28,-24.01 -46.44,-15.55 -4.96,21.5 -6.03,16.65 15.15,28.03 6.72,-12.07 -7.9,-3.83 0.82,-21.7l27.9 28.15 297.19 -94.11c26.94,-8.54 72.46,-18.81 79.81,-44.31 -18.22,-8.98 -65.81,16.52 -98.97,17.28 -3.86,-16.73 13.13,3.75 0.11,-11.57 -10.08,-11.87 -3.7,-1.11 -13.46,-5.71 8.35,-16.26 11.84,-22.32 14.14,-44.35 2.57,-24.58 7.39,-20.04 -11.81,-27.82 52.91,-19.15 33.4,-62.62 39,-107.41 10.58,-84.6 68.67,-137.76 90.37,-215.46 43.35,-155.23 14.09,-68.94 100.06,-206.52 22.64,-36.23 31.5,-61.76 49.43,-101.14 32.11,-70.52 87.04,-129.29 109.85,-193.04zm32.51 -709.89c13.05,-19.42 10.68,-12.91 8.14,-40.1l26.14 11.83c10.64,-16.56 4.66,-23.11 31.1,-3.64 -5.5,-21.89 -4.11,-6.8 -3.55,-24.15l62.06 -22.43 15.36 50.36 -23.79 -21.98c-6.99,20.3 -10.37,23.14 -24.74,34.98 -14.78,12.17 -59.22,26.78 -83.28,29.87 -21.44,2.75 -19.63,0.24 -32.02,-8.01l-5.89 31.48c-0.39,1.18 -1.87,5.56 -2.18,4.68 -0.3,-0.88 -1.43,3.11 -2.35,4.54 0.03,-16.22 -3.89,-45.46 -2.71,-54.94l17.19 -26.89c10.61,13.78 13.59,13.85 20.51,34.41zm623.17 -78.26l-42.87 20.05c-14.22,5.8 -36.3,16.97 -50.88,24.52 -38.59,19.97 -75.24,20.84 -115.17,35.8 9.76,-27.61 19.11,-32.58 26.67,-55.46 -24.2,-9.79 -38.81,-16.94 -54.89,-31.93 8.69,-3.57 9.89,0.65 25.41,7.24 0.9,-37.37 -4.4,-18.09 22.1,-26.35 14.18,-4.41 3.48,0.81 19.68,-6.72 44.94,-20.91 39.66,14.95 76.22,1.41 39.09,-14.48 16.06,-28.03 11.91,-21.09 33.87,-2.49 40.08,1.36 68.74,-11.45 -14.2,36.47 -38.7,9.04 -59.07,36.6l143.75 -18.43 -71.61 45.84zm-408.25 -43.94c12.41,-24.5 -1,1.28 11.28,-14.93 23.22,-30.61 4.83,-21.04 36.48,-21.86 -15.14,9.09 -14.84,5.3 -21.61,24.27 5.2,4.24 2.86,3.24 11.69,7.32 36.46,16.88 62.08,3.44 87.45,30.24 -5.18,15.65 4.13,3.85 -14.33,22.05l-7.5 6.26c-0.6,-1.17 -2.73,2 -4.02,3.1 32.41,14.01 56.77,35.46 68.51,73.54 -14.58,11.2 0.01,4.46 -24.69,10.41 12.95,-40.35 -27.28,-65.74 -53.5,-85.14 -40.42,-29.89 -66.92,7.28 -89.77,-55.26zm-294.54 -118.94c40.07,-40.98 40.98,-4.76 83.8,-29.78 10.06,-5.87 11.65,-7.27 23.83,-12.63 10.54,13.84 -1.28,-8.53 4.24,12.95 0.47,1.84 1.51,8.04 2,10.04 3.14,12.79 3.03,15.29 8.06,23.98 9.81,-3.1 16.09,0.55 13.63,-16.11 -2.02,-13.69 0.75,-5.22 -12.25,-10.8l28.15 -8.55 16.33 22.01c39.07,-20.46 65.69,-12.98 110.25,-4.23 -7.47,5.1 -0.37,1.35 -13.6,6.93 -1.82,0.77 -7.61,2.82 -9.54,3.51 -10.11,3.59 -14.96,3.99 -23.56,7.49l48.61 45.28c-16.18,59.08 -23.81,66.98 -84.82,55.37 0.45,39.15 23.5,29.63 -6.11,45.22 -10.84,-12.92 -22.82,-28.49 -15.65,-54.2 1.78,-6.37 -8.22,-20.17 41.36,-25l-22.08 25.35c28.44,-7.67 56.09,-18.52 71.93,-40.49 -10.35,-4.5 -4.14,9.03 -15.58,-1.06l-9.44 -19.57c-8.02,26.93 -5.3,26.6 -41.66,19.11 -19.2,-3.95 -29.91,-8.82 -53.15,-9.63 -61.01,-2.13 -74.41,5.11 -84.11,32.97 -13.86,-13.98 -55.31,-58.77 -60.63,-78.15z"/>
 </g>
</svg>
